<?xml version="1.0" encoding="utf-8"?>
<!-- Generator: Adobe Illustrator 25.0.1, SVG Export Plug-In . SVG Version: 6.00 Build 0)  -->
<svg version="1.1" id="Layer_1" xmlns="http://www.w3.org/2000/svg" xmlns:xlink="http://www.w3.org/1999/xlink" x="0px" y="0px"
	 viewBox="0 0 256 186" style="enable-background:new 0 0 256 186;" xml:space="preserve">
<path d="M188,45c-0.3,0-0.6,0-1,0.1c0,0,0,0,0,0c-10.1,2.3-20.1,5.3-24.7,15.7c-3,6.8-3.6,14.5-5.2,21.7
	c-3.4,15.7,18.4,10.8,14.3,26.2c-0.7,2.5-3.9,4.1-7.5,4.1c-8.5,0-8.9-7.3-4.6-12c-6.5-0.7-10.9,2.5-9.5,7.1
	c1.7,5.6,8.4,6.8,14.6,6.8c0,0,0,0,0,0c1.4,0,2.9-0.1,4.2-0.2c6.6-0.5,15.4-2.2,15.8-7.4c0.8-11-19.3-5.3-15.4-23.3
	c1.6-7.2,3.1-14.4,4.7-21.6c2.1-9.5,5.2-11.4,14.1-14.2C190.8,47,190.2,45.1,188,45z M179.9,26.8c-4.5,0.4-3.4,2.6,0,3.4
	c11.3,0.4,15.7,11.3,13.4,22c-1.8,8.4-3.7,16.8-5.5,25.3c-1.3,6-2.4,10.8-9,13c-2.1,0.7-3.2,3.3-0.7,3c0,0,0,0,0,0
	c0.4-0.1,0.8-0.1,1.4-0.2c8.5-2.2,18.6-8,20.3-15.5c1.6-7.3,3.2-14.7,4.8-22c3.1-14.4-9.5-27.5-23.1-28.9
	C180.9,26.8,180.4,26.8,179.9,26.8z M166.8,18.9c-18.1,0.2-25.4,10.6-28.7,25.7c-2,0.9-4.1,1.8-6,2.8c-1.8,0.9-2,1.4,0,1
	c3.5-0.8,4.5,0.8,4.6,2.9c-4.5,19.3-8.4,38.7-13.3,57.9c-1.2,0-3.6,0-4.9,0c-2,0-4.7,2.8-1.7,2.8c1.5,0,4.5,0,6.1,0
	c-1.4,4.7-2.3,8-1.6,10.8c0.2,0.9,1.1,1,1.5,0.3c3.8-5.8,9.8-8.9,17.8-11.8c1.9-0.8,2-1.4,0-1c-3,0.5-5.3-0.1-4.1-5.2
	c4.1-17.3,8.1-34.3,11.8-51.7c0.7-2.6,0.9-7.8-0.6-9.4c2.6-0.8,5.2-1.6,7.9-2.2c2.1-0.5,2.3,0.5,2.4,1.5c0.4,3.8,6.9,0.2,3.7-2.7
	c-3.3-2-7.2,0.2-10.6,1.2c0.8-2.8,1.6-4.1,2.5-6.9c1.9-5.9,3.9-14.1,10-14.4c1.4-0.1,2.7,1.5,3.5,3.4c0.8,2.1,1.8,4.1,4,4.1
	s4-1.9,4-4.1C174.9,19.7,169.8,18.9,166.8,18.9z M79.7,136.3c18.1-0.2,25.4-10.6,28.7-25.7c2-0.9,4.1-1.8,6-2.8c1.8-0.9,2-1.4,0-1
	c-3.5,0.8-4.5-0.8-4.6-2.9c4.4-19.3,8.4-38.7,13.3-57.9c1.2,0,3.6,0,4.9,0c2,0,4.7-2.8,1.7-2.8c-1.5,0-4.5,0-6.1,0
	c1.4-4.7,2.3-8,1.6-10.8c-0.2-0.9-1.1-1-1.5-0.3C120,38,114,41,106,44c-1.9,0.8-1.9,1.4,0,1c3-0.5,5.3,0.1,4.1,5.2
	c-4.1,17.3-8.1,34.3-11.8,51.7c-0.7,2.6-0.8,7.8,0.6,9.4c-2.6,0.8-5.1,1.6-7.9,2.2c-2.1,0.5-2.3-0.5-2.3-1.5
	c-0.4-3.8-6.9-0.1-3.7,2.7c3.3,2,7.2-0.2,10.7-1.2c-0.8,2.8-1.6,4.2-2.5,6.9c-1.9,5.9-3.9,14.1-10,14.4c-1.3,0.1-2.7-1.5-3.5-3.4
	c-0.8-2.1-1.8-4.1-4.1-4.1c-2.3,0-4,1.9-4,4.1C71.6,135.6,76.6,136.4,79.7,136.3z M78.5,22.5c-10,0-26.4,4.5-27.4,16.2
	c-0.5,6.9,4.4,8.4,10.3,6.7c4.1-1.3,5.8-6.2,2.2-8.3c-3.1-1.8-7.6,2.8-4.8,5.6c0.4,0.4-0.1,1.1-1.8,1c-3.4-0.2-4.3-2.5-3.9-5.2
	c1.6-11,16.7-15.6,25.7-13.1c14.8,4.1,19.1,22,2.7,31.1c-2.7,1.5-5.7,2.4-8.6,3.4c-2.1,0.8-1.1,1,0.4,0.7c1.7-0.3,3.6-0.6,4-0.8
	c4.1-1,7.3,1.1,5.9,7.6c-1.1,4.9-3.3,14.7-4.4,19.6c-3.2,14.2-3.2,20.6-15.1,21.6c-4.5,0.4-5.9-2.9-5.7-6.8
	c0.3-5.7,2.4-16.6,7.7-18.2c0.8-0.2,0.8-0.9-0.2-1.3c-1.9-0.8-2.7-1.1-2.3-3.2c1.4-6.8,2.9-13.5,4.4-20.2c0.7-3,2.8-12.8,0.9-13.4
	c-0.4-0.1-1-0.2-1.6-0.2c-4.2,0-11.6,3.2-14.8,4.4v0c-1.9,0.7-1.9,1.4,0,1c3-0.5,5.1,0,4,5.3c-1.6,6.8-2.9,14-4.4,20.6
	c-0.7,3.2,4,5.2,3.6,6.3c-5.6,1.8-8.3,12-8.3,17.3c-0.1,8.6,5.6,11.4,15.4,10.6c14.1-1.2,21.1-3.3,25.7-13.5
	c1.1-2.5,1.6-4.7,2.1-7.4c1-4.8,3.3-14.5,4.3-19.3c1.3-6.2,0.9-12.5-6.5-13.6C110.2,45.5,103,22.4,78.5,22.5z"/>
<g>
	<path d="M21.6,165.2v-8.4h9.9c1.2,0,2,0.9,2,2.1c0,0.8-0.5,1.6-1.3,1.9c0.9,0.3,1.7,1.1,1.7,2.1c0,1.2-0.9,2.2-2.1,2.2H21.6z
		 M25.4,160.1h3.3c0.4,0,0.8-0.3,0.8-0.7c0-0.4-0.3-0.7-0.7-0.7h-3.4V160.1z M25.4,163.4h3.7c0.5,0,0.8-0.4,0.8-0.8
		s-0.4-0.8-0.9-0.8h-3.6V163.4z"/>
	<path d="M48.6,158.8h-4v6.5h-3.9v-6.5h-4v-1.9h11.9V158.8z"/>
	<path d="M55.8,165.2h-3.9v-8.4h10.9v1.9h-7v1.7h6.5l-0.3,1.8h-6.2V165.2z"/>
	<path d="M66.1,165.2v-8.4h8.5c2.3,0,4,1.9,4,4.2s-1.7,4.2-4,4.2H66.1z M70,163.3h2.6c1.2,0,2.1-1,2.1-2.3s-0.9-2.3-2.1-2.3H70
		V163.3z"/>
	<path d="M91,161c0-3.4,2.8-4.5,6.5-4.5c3.3,0,5.8,0.9,6.2,3.7h-3.9c-0.3-1.1-1.1-1.7-2.4-1.7c-1.5,0-2.5,0.8-2.5,2.5
		s0.9,2.5,2.5,2.5c1.3,0,2.1-0.6,2.4-1.7h3.9c-0.4,2.8-2.9,3.7-6.2,3.7C93.8,165.6,91,164.5,91,161z"/>
	<path d="M106.7,161c0-3.4,2.8-4.5,6.5-4.5s6.5,1.1,6.5,4.5s-2.8,4.5-6.5,4.5S106.7,164.5,106.7,161z M110.6,161
		c0,1.7,1,2.5,2.6,2.5c1.5,0,2.6-0.8,2.6-2.5s-1-2.5-2.6-2.5C111.6,158.6,110.6,159.4,110.6,161z"/>
	<path d="M127,156.8v6.5h7v1.9h-10.9v-8.4H127z"/>
	<path d="M141.1,156.8v6.5h7v1.9h-10.9v-8.4H141.1z"/>
	<path d="M151.3,165.2v-8.4h10.9v1.8h-7v1.4h6.4l-0.3,1.7h-6v1.3h7v2.1H151.3z"/>
	<path d="M165.3,161c0-3.4,2.8-4.5,6.5-4.5c3.3,0,5.8,0.9,6.2,3.7H174c-0.3-1.1-1.1-1.7-2.4-1.7c-1.5,0-2.5,0.8-2.5,2.5
		s0.9,2.5,2.5,2.5c1.3,0,2.1-0.6,2.4-1.7h3.9c-0.4,2.8-2.9,3.7-6.2,3.7C168.1,165.6,165.3,164.5,165.3,161z"/>
	<path d="M192.7,158.8h-4v6.5h-3.9v-6.5h-4v-1.9h11.9V158.8z"/>
	<path d="M195.9,165.2v-8.4h3.9v8.4H195.9z"/>
	<path d="M207.5,165.2l-4.6-8.4h4l3.2,5.9l3.2-5.9h2.8l-4.6,8.4H207.5z"/>
	<path d="M219.2,165.2v-8.4H230v1.8h-7v1.4h6.4l-0.3,1.7h-6v1.3h7v2.1H219.2z"/>
</g>
</svg>
